#!OML:ASF \\Waltz\H\Terrain\Patient Classification 1\Animal2\Wednesday\Animal2.ASF
:FULLY-SPECIFIED
:DEGREES
547
root 0.404424 17.4869 0.5389 5.19041 -23.9751 -3.40706
lowerback 5.60421 -4.10598 0.632433
upperback -8.10089 -5.53456 0.171594
thorax -11.9074 -2.72968 0.713613
lowerneck -3.44039 -1.40467 12.3277
upperneck 6.29223 -1.37049 -22.3251
head 2.11029 -1.13966 -9.13574
rclavicle 4.92986e-014 7.55382e-015
rhumerus -41.7003 -32.1218 -29.3662
rradius 42.8926
rwrist 6.36548
rhand -33.3633 10.9202
rfingers 7.12502
rthumb -6.56494 -18.958
lclavicle 4.92986e-014 7.55382e-015
lhumerus -49.3908 17.9369 25.4135
lradius 47.7729
lwrist 20.9438
lhand -27.4928 25.7716
lfingers 7.12502
lthumb -0.896025 55.7495
rfemur -19.2631 8.429 15.9813
rtibia 33.5072
rfoot -22.0042 1.27543
rtoes 24.1035
lfemur -18.1163 -0.100655 -11.0866
ltibia 37.7654
lfoot -26.8182 2.2239
ltoes -17.7265
548
root 0.400608 17.4542 0.538416 5.2512 -23.4372 -3.59852
lowerback 5.7611 -4.13639 0.965359
upperback -8.07426 -5.53126 0.209873
thorax -12.0037 -2.75248 0.583547
lowerneck -3.50633 -1.37987 12.3743
upperneck 6.4186 -1.32047 -22.3844
head 2.16556 -1.12294 -9.16863
rclavicle 2.10712e-014 6.75868e-015
rhumerus -42.1935 -32.2995 -29.8993
rradius 42.3026
rwrist 5.82257
rhand -32.9133 10.9305
rfingers 7.12502
rthumb -6.13048 -18.9608
lclavicle 2.10712e-014 6.75868e-015
lhumerus -50.0595 18.3622 26.4336
lradius 47.0912
lwrist 20.9055
lhand -27.4431 26.1849
lfingers 7.12502
lthumb -0.848017 56.163
rfemur -19.584 7.47151 16.2501
rtibia 34.2315
rfoot -22.0813 1.33676
rtoes 23.4322
lfemur -18.8343 0.212601 -10.8353
ltibia 38.885
lfoot -26.8237 2.08036
ltoes -17.1634
549
root 0.396827 17.4234 0.540895 5.27293 -23.0826 -3.66244
lowerback 6.0152 -4.14017 1.12513
upperback -8.12554 -5.51361 0.233279
thorax -12.2333 -2.75284 0.542694
lowerneck -3.54038 -1.3081 12.5747
upperneck 6.51275 -1.21179 -22.5386
head 2.2146 -1.07372 -9.26158
rclavicle 1.58034e-014 1.98785e-015
rhumerus -42.9438 -33.007 -29.7698
rradius 41.4271
rwrist 7.17707
rhand -30.7099 12.3334
rfingers 7.12502
rthumb -4.00299 -17.6087
lclavicle 1.58034e-014 1.98785e-015
lhumerus -50.7731 18.7015 27.3365
lradius 46.2208
lwrist 21.1239
lhand -27.4142 26.2032
lfingers 7.12502
lthumb -0.820117 56.1814
rfemur -19.9456 6.47841 16.3627
rtibia 34.9834
rfoot -22.3176 1.71614
rtoes 22.0008
lfemur -19.5179 0.656724 -10.7671
ltibia 40.0625
lfoot -26.7402 2.53145
ltoes -17.0897
550
root 0.394689 17.3819 0.539422 5.26878 -22.6702 -3.73612
lowerback 6.4222 -4.15266 1.24991
upperback -8.22183 -5.50554 0.297643
thorax -12.6025 -2.75026 0.582333
lowerneck -3.35931 -1.2604 12.5415
upperneck 6.39658 -1.1451 -22.5424
head 2.16249 -1.02751 -9.25019
rclavicle 4.87022e-014 8.34896e-015
rhumerus -43.6898 -33.2184 -29.8058
rradius 40.7222
rwrist 7.83466
rhand -28.8199 12.9455
rfingers 7.12502
rthumb -2.17773 -17.0232
lclavicle 4.87022e-014 8.34896e-015
lhumerus -51.5406 19.1312 28.2171
lradius 45.2608
lwrist 20.9253
lhand -27.4921 26.4094
lfingers 7.12502
lthumb -0.895356 56.3873
rfemur -20.2974 5.582 16.4765
rtibia 35.8012
rfoot -22.6018 2.21416
rtoes 21.1487
lfemur -20.1929 1.06439 -10.6566
ltibia 41.2433
lfoot -26.9242 2.80133
ltoes -15.4518
551
root 0.390049 17.34 0.536442 5.40352 -22.0769 -4.031
lowerback 6.61104 -4.119 1.50057
upperback -8.22766 -5.40648 0.463166
thorax -12.7332 -2.71309 0.622573
lowerneck -3.16205 -1.2311 12.3587
upperneck 6.26111 -1.09985 -22.4901
head 2.09999 -0.991918 -9.19089
rclavicle 2.42517e-014 -5.96354e-015
rhumerus -44.5092 -33.5152 -29.6911
rradius 40.098
rwrist 8.16202
rhand -27.5454 12.8041
rfingers 7.12502
rthumb -0.946853 -17.1735
lclavicle 2.42517e-014 -5.96354e-015
lhumerus -52.1894 19.932 29.2017
lradius 44.2915
lwrist 20.2937
lhand -26.9808 26.3909
lfingers 7.12502
lthumb -0.401564 56.3702
rfemur -20.702 4.70334 16.8445
rtibia 36.6867
rfoot -22.8256 2.42899
rtoes 20.9825
lfemur -20.9944 1.48221 -10.2906
ltibia 42.4092
lfoot -27.2066 3.11442
ltoes -16.0669
